<mxfile host="app.diagrams.net" modified="2024-01-20T12:14:39.636Z" agent="Mozilla/5.0 (Windows NT 10.0; Win64; x64) AppleWebKit/537.36 (KHTML, like Gecko) Chrome/120.0.0.0 Safari/537.36" version="22.1.21" etag="NkNO7l0HvkMJYUYCcy9r" type="github">
  <diagram name="第 1 页" id="f2NdLnmH5TyVhXMnu6n2">
    <mxGraphModel>
      <root>
        <mxCell id="0" />
        <mxCell id="1" parent="0" />
      </root>
    </mxGraphModel>
  </diagram>
</mxfile>
